# xmcd
#
# Track frame offsets:
#	150
#	15555
#	32570
#	48810
#	67700
#	84705
#	101530
#	118365
#	136380
#	157890
#	172550
#	185540
#
# Disc length: 2652 seconds
#
# Revision: 1
# Processed by: cddbd v1.5.2PL0 Copyright (c) Steve Scherf et al.
# Submitted via: audiograbber 1.83.01
#
DISCID=890a5a0c
DTITLE=Ami Jaara - Vaeltaja
DYEAR=1995
DGENRE=Pop
TTITLE0=Pohjanmaa
TTITLE1=Kaukana
TTITLE2=En En‰‰ Palaa
TTITLE3=Yksin‰inen Matkamies
TTITLE4=Mustaa Asfalttia
TTITLE5=N‰kemiin
TTITLE6=Kuutamolla
TTITLE7=Kuka Vei Pois Rakkautemme
TTITLE8=J‰‰t‰ Vain
TTITLE9=N‰ill‰ Teill‰
TTITLE10=Sua Vain
TTITLE11=Julia
EXTD=TR.
EXTT0=
EXTT1=
EXTT2=
EXTT3=
EXTT4=
EXTT5=
EXTT6=
EXTT7=
EXTT8=
EXTT9=
EXTT10=
EXTT11=
PLAYORDER=
